<svg xmlns="http://www.w3.org/2000/svg" viewBox="0 0 576.25 153.86"><defs><style>.c-1{fill:#d39816;}.c-2{fill:#7d3a84;}.c-3{fill:#7fa328;}.c-4{fill:#db7519;}.c-5{fill:#cc4032;}.c-6{fill:#b25787;}.c-7{fill:#135a89;}.c-8{fill:#158766;}.c-9{fill:rgba(255,255,255,0.85);}.c-10{fill:#7c998f;}</style></defs><path class="c-1" d="M54.89,151V149.6c5.9-.19,8.28-1.81,8.28-32.45v-5.7c0-27-2.57-27.6-7.32-27.88V82.12c5,0,7.89.67,11.41.67s6.38-.67,11.42-.67v1.43c-5.23.28-7.8,1.52-7.8,27.88v5.7c0,21.6,1.81,30.07,1.81,30.07s13.32,1.14,21.12,1.14c10.85,0,20.74-1,29.11-12.37l1.53.86a39.24,39.24,0,0,0-2.29,13.32c-5.61.38-12.37.76-17.41.76-19.5,0-22.17-.57-37.49-.57-3.52,0-7.32.69-12.37.69Z"/><path class="c-2" d="M339.18,142.54c-4.66,5.71-11.8,11.32-21.22,11.32-7.71,0-21.22-2.38-40.91-33.87h-1.24a78,78,0,0,1-9.89-.76v6.56c0,17.13,1.9,23.22,11,23.79V151c-3.8,0-9.13-.67-14.36-.67-3.53,0-7.71.67-12.75.67V149.6c5.89-.19,8.27-1.81,8.27-32.45v-5.7c0-27-2.57-27.6-7.32-27.88V82.12c5,0,7.89.67,11.41.67,6.28,0,12-.29,18-.29,11.61,0,19.22,4.85,19.22,16,0,10.66-7.81,17.51-15.89,20.18,19.12,26.64,32.63,28.64,40.82,28.64a18.65,18.65,0,0,0,13.79-5.62ZM265.92,113.9v2.38a31.07,31.07,0,0,0,9.7,1.61c6.95,0,14.46-5.13,14.46-18.26,0-10.18-4.56-15-13.7-15-1.43,0-7.13.1-8.75.38C267.63,85,265.92,95.54,265.92,113.9Z"/><path class="c-3" d="M442.49,82A447.34,447.34,0,0,0,485.4,133.6v-29c0-17.22-3.61-20.45-10.65-21V82.12c5,0,9,.67,12.56.67s5.32-.67,10.37-.67v1.43c-5.9.19-8.66,3.71-8.76,21l-.38,46.72H487c-30.83-37.87-47.29-56.71-47.29-56.71l-.57.19.29,33.78c.19,17.7,3.61,20.46,10.65,21V151c-5,0-9-.67-12.56-.67s-5.33.67-10.37.67V149.6c5.8-.19,8.75-3.14,8.75-20.17l-.09-26.93c-.09-18.17-3.62-18.65-7.71-18.93V82.12c3.62,0,5.62.29,8,.29,3,0,6.39-.38,6.39-.38Z"/><path class="c-4" d="M1.88,59.43V58.24c4.93-.16,6.92-1.51,6.92-27.12V26.35C8.8,3.77,6.65,3.29,2.68,3V1.86c4.21,0,6.36.56,9.3.56,3.18,0,11-1.75,15.27-1.75,15.19,0,29.82,7,29.82,26.79,0,21.71-13.84,33.16-28.71,33.16-7,0-13.2-1.75-16.38-1.75C9,58.87,6.1,59.43,1.88,59.43Zm26.72-.64c13,0,19.72-13,19.72-30.21,0-20.92-10.57-26.16-22.5-26.16C19.69,2.42,17,5,17,5c-.79,1.75-1.67,7.79-1.67,23.7,0,19.4,1.59,24.8,1.59,24.8S20.41,58.79,28.6,58.79Z"/><path class="c-5" d="M137.4,59.43c-4.21,0-9-.56-11.93-.56s-7.71.56-11.93.56V58.24c5.73-.16,8.51-1.51,8.51-25.53V4.8h-6.76c-6.84,0-10.73,1.91-13.51,10.26l-1.28-.24s.56-6.68.56-14.79h1.11s0,2.07,3.1,2.07c9,0,17.34.32,20.52.32,3.34,0,12.56-.32,20.44-.32,3.1,0,3.42-2.07,3.42-2.07l1.27.24a143.7,143.7,0,0,0-1.51,15.35l-1.28.23c-2.14-8.11-5-11-11.92-11h-7.32V32.71c0,24,2.63,25,8.51,25.53Z"/><path class="c-6" d="M238.17,57.44c8.66,0,11.77-7.95,16.38-20.43l1.35.31s-2.63,12.09-2.63,21.39c-3.18.32-6.28.48-9.14.48-7,0-14.39-.32-18.29-.32-2.94,0-6.12.56-10.34.56V58.24c4.93-.16,6.92-1.51,6.92-27.12V26.35c0-22.58-2.14-23.06-6.12-23.3V1.86c4.21,0,6.6.56,9.54.56s7.32-.56,11.53-.56V3c-5.17.24-8.51,1.27-8.51,23.3V31.1c0,18,1.51,25.69,1.51,25.69A75.48,75.48,0,0,0,238.17,57.44Z"/><path class="c-7" d="M369.87,2.1C373,2.1,373,0,373,0h1.11c0,8.11.56,17.17.56,17.17l-1.11.24c-2.79-8.35-5.57-13.35-14-13.35-1.67,0-8.51.15-8.51.15S349.51,9.89,349.43,27h7.48c7.71,0,9.46-4.7,11-8.59l1.11.32s-.63,5.88-.63,9.14a89,89,0,0,0,1.27,10.42l-1,.32c-1.2-3.58-3-9.71-12.65-9.71h-6.52c0,22.83,1.51,27.76,1.51,27.76s5.25.63,8.43.63c8.35,0,12.33-6.44,16.78-18l1.11.4a112.08,112.08,0,0,0-2,19.08c-4.06.4-8,.56-11.77.56-6.44,0-13.6-.4-17.1-.4-2.94,0-6.12.56-10.34.56V58.24C341,58.08,343,56.73,343,31.12V26.35c0-22.58-2.14-23.06-6.12-23.3V1.86c4.21,0,6.6.56,9.54.56,3.65,0,11.58-.32,23.45-.32Z"/><path class="c-8" d="M457.51,52.35c-3.9,4.77-9.87,9.47-17.74,9.47-6.44,0-17.73-2-34.19-28.31a67.28,67.28,0,0,1-9.3-.64v5.49c0,14.31,1.59,19.4,9.22,19.88v1.19c-3.18,0-7.63-.56-12-.56-2.94,0-6.44.56-10.65.56V58.24c4.93-.16,6.92-1.51,6.92-27.12V26.35c0-22.58-2.15-23.06-6.13-23.3V1.86c4.22,0,6.6.56,9.55.56,5.24,0,10-.24,15-.24,9.71,0,16.07,4.05,16.07,13.36,0,8.9-6.52,14.63-13.28,16.85,16,22.27,27.28,23.94,34.12,23.94a15.55,15.55,0,0,0,11.53-4.69ZM396.28,28.42v2a26,26,0,0,0,8.11,1.35c5.8,0,12.09-4.3,12.09-15.27C416.48,8,412.66,3.93,405,3.93c-1.19,0-6,.08-7.31.31A168.58,168.58,0,0,0,396.28,28.42Z"/><path class="c-9" d="M30.92,82.5c11.61,0,19.7,5.42,19.7,17.51,0,14.36-10.28,24.45-25,24.45a70.47,70.47,0,0,1-9.51-.76v3c0,17.13,1.9,22.27,11,22.84V151c-3.81,0-9.14-.67-14.37-.67C9.23,150.34,5,151,0,151V149.6c5.9-.19,8.28-1.81,8.28-32.45v-5.7c0-27-2.57-27.6-7.33-27.88V82.12c5,0,7.9.67,11.42.67,6.28,0,13-.29,18.55-.29ZM16.08,116.09v4.66a28.83,28.83,0,0,0,9.42,1.71c9.7,0,15.22-8.18,15.22-21.22,0-11.7-5.71-16.74-14.55-16.74a83.78,83.78,0,0,0-8.38.38A262.45,262.45,0,0,0,16.08,116.09ZM122.26,116c3.9,9.33,5.9,13.8,9.8,14.56v1.62c-4,0-7-.76-9.8-.76s-6.28.76-10.28.76v-1.62c3-.09,4.48-1.24,4.48-4.28,0-1.9-.58-4.66-2.86-10.75H95.71a1.61,1.61,0,0,0-1.52.76c-1.62,4.38-4.09,10.18-4.09,12.56,0,2.57.76,4.18,4,4.56V135c-3.43,0-4.95-.85-7.71-.85s-4.66.85-7,.85v-1.62c2.76,0,5.33-3.71,8.94-11.79l17.37-39.5h2.38Zm-26.17-2.8c1.15,0,8.47-.28,16.46-.38l-8.08-21.22-8.66,20.84C95.52,113,95.81,113.23,96.09,113.23Zm41.67-9.8c-8.09-13.51-12.37-19.31-18.36-19.88l.09-1.43c5.05,0,9.14.67,12.66.67s6.47-.67,11.51-.67l-.09,1.43c-3.14.09-4.19,1.52-4.19,3.61,0,3.52,3.14,9,5.33,12.66l9.8,16.84c11.51-17.7,14-24.55,14-28.74,0-2.66-3.42-4.09-6.47-4.28L162,82.22c5,0,7.9.66,11.42.66s6.37-.66,11.41-.66l.1,1.42c-6.57.57-13.61,12.75-29.12,36.54.1,29.4,3.52,28.83,9.52,29.4V151c-5,0-9.8-.67-13.32-.67s-8.28.67-13.32.67V149.6c5.8-.19,9.32.09,9.51-28.83ZM233,83c3.61,0,3.61-3,3.61-3H238s-.09,3.62-.09,7.42c0,8.85.57,14.56.57,14.56l-1.52.19c-3.9-11.7-9.33-19.31-21.41-19.31-16.65,0-23.22,14-23.22,32.73,0,24,12.09,34.72,24.45,34.72,7.71,0,13.71-4.37,13.71-18.17,0-12.84-5.24-14.08-13.71-14.55v-1.43c5.05,0,13.8,1.14,17.32,1.14s5.9-.67,10.94-.67V118c-5.32.29-7,2.38-7,14.27,0,14.37.76,16.27.76,20.74h-1.42c-.29-2.47-1.15-3.42-4.28-3.42-4.86,0-9.62,2.85-17.7,2.85-20.36,0-33.4-13.41-33.4-36,0-24.17,15-35.78,33.59-35.78,9,0,12.56,2.34,17.41,2.34Zm99.14-1.67c14.46,0,22.64,9.32,22.64,24.64,0,15.13-8.56,26.26-23.4,26.26-15.23,0-22.93-9.61-22.93-25.4,0-15.61,8.37-25.5,23.69-25.5Zm-1.33,48.91c9.61,0,13.6-10.28,13.6-24.36,0-13.89-3-22.55-12.56-22.55s-13.6,9.42-13.6,23.5C318.25,120.66,321.2,130.27,330.81,130.27ZM384,83.55c-6.47.66-10.65.66-10.65,19.12v15.89c0,19.32,2.75,30.64,17.88,30.64,10,0,19.22-4.76,19.22-23.22v-23.4c0-11.42-1.43-17.89-10.65-19V82.12c5,0,9.32.67,12.84.67s5.33-.67,10.37-.67v1.43c-5.9.19-8.85,5.71-8.85,22.93v19.41c0,20.26-11,26.54-22.93,26.54-23.12,0-26.16-12.56-26.16-31.4V102.67c0-18.46-3.14-18.84-7.9-19.12V82.12c5,0,8.56.67,12.08.67s9.71-.67,14.75-.67ZM502.33,151V149.6c5.9-.19,8.28-1.81,8.28-32.45v-5.7c0-27-2.57-27.6-7.32-27.88V82.12c5,0,7.61.67,11.13.67,3.8,0,13.22-2.1,18.27-2.1,18.17,0,35.68,8.38,35.68,32.07,0,26-16.56,39.67-34.35,39.67-8.38,0-15.8-2.09-19.6-2.09-3.52,0-7,.69-12.09.69Zm32-.77c15.61,0,23.6-15.6,23.6-36.15,0-25-12.66-31.3-26.93-31.3-7.32,0-10.56,3.14-10.56,3.14-1,2.09-2,9.32-2,28.35,0,23.21,1.91,29.69,1.91,29.69s4.15,6.25,13.95,6.25ZM97.16,41.3c4.13,10.81,6.36,16.46,11.45,16.94v1.19c-4.22,0-7.4-.56-10.34-.56s-6.6.56-10.81.56V58.24c3-.08,4.77-1.43,4.77-5,0-2.23-.72-5.41-2.15-9.62l-1.75-5.09H70.52a1.62,1.62,0,0,0-1.35.55l-.64,1.75c-1.83,5.2-2.94,9.06-2.94,12.08s1.27,4.85,4.69,5.33v1.19c-3.58,0-5.17-.56-8.11-.56s-4.29.56-7.4.56V58.24C59,58,60.66,54,64.32,44.56L80.86,1.86h1.35Zm-26.88-5c0,.32.16.4.48.4,1.19,0,8.58-.4,16.78-.48l-8.11-24.1Zm115.08,5c4.13,10.81,6.36,16.46,11.45,16.94v1.19c-4.22,0-7.4-.56-10.34-.56s-6.6.56-10.81.56V58.24c3-.08,4.77-1.43,4.77-5,0-2.23-.72-5.41-2.15-9.62l-1.75-5.09H158.72a1.65,1.65,0,0,0-1.35.55l-.64,1.75c-1.83,5.25-2.94,9.07-2.94,12.09s1.27,4.85,4.69,5.33v1.18c-3.58,0-5.17-.56-8.11-.56s-4.29.56-7.4.56V58.24c4.22-.24,5.89-4.22,9.55-13.68l16.54-42.7h1.35Zm-26.88-5c0,.32.16.4.48.4,1.19,0,8.58-.4,16.78-.48l-8.12-24.09Zm108.16-9.95c0-22.58-2.38-23.06-6.36-23.3V1.86c4.21,0,6.6.56,9.54.56s5.33-.56,9.54-.56V3c-4,.24-6.28.72-6.28,23.3V31.1c0,25.61,2,26.64,7.08,27.12v1.21c-4.22,0-7.4-.56-10.34-.56s-6.12.56-10.34.56V58.24c4.93-.16,7.16-1.51,7.16-27.12ZM319,59.43c-4.22,0-9-.56-11.93-.56s-7.71.56-11.93.56V58.24c5.73-.16,8.51-1.51,8.51-25.53V4.8h-6.76C290,4.8,286.13,6.71,283.35,15l-1.28-.24s.56-6.68.56-14.79h1.11s0,2.07,3.1,2.07c9,0,17.34.32,20.52.32,3.34,0,12.56-.32,20.44-.32,3.1,0,3.42-2.07,3.42-2.07l1.27.24A139.21,139.21,0,0,0,331,15.62l-1.28.23c-2.14-8.11-5-11-11.92-11h-7.32V32.71c0,24,2.62,25,8.51,25.53ZM460.05,30.17c3.26,7.79,5.25,11.53,9,12.16v1.36c-3.34,0-6.68-.64-9-.64s-5.25.64-8.59.64V42.33c2.47-.08,3.74-1,3.74-3.58a21.6,21.6,0,0,0-1.59-6.91l-.8-2.07H437.86c-.87,0-1.19.48-1.43,1.19-1.11,3.18-1.82,5.65-1.82,7.56,0,2.14.63,3.5,3.33,3.81v1.36c-2.86,0-3.89-.72-6.2-.72-2.07,0-4.53.72-6.12.72V42.33c2.54-.63,4.69-3,7.55-9.86l13-30.61h2Zm-21.87-2.31c1,0,7.08-.24,13.76-.32L445.18,9.81,437.86,27.3C437.71,27.7,437.94,27.86,438.18,27.86Zm79.06-8.27C513.66,9.81,509,2.42,499.35,2.42c-13.92,0-19.41,11.68-19.41,27.35,0,20,10.1,29,20.44,29,9.15,0,12.56-5,17.57-18.37l1.2.32A86.93,86.93,0,0,0,517.4,57.9c-2.07.87-8,2.7-18.21,2.7-17,0-27.91-11.21-27.91-30.06,0-20.19,12.64-29.89,28-29.89,7.47,0,10.81,1.9,14.63,1.9,3,0,3-2.54,3-2.54h1.19s-.1,3-.1,6.22c0,7.4.48,13.12.48,13.12Z"/><path class="c-10" d="M536.89,19.67C530.13,8.38,526.55,3.53,521.54,3l.08-1.19c4.21,0,7.63.56,10.57.56s5.41-.56,9.63-.56L541.74,3c-2.63.08-3.5,1.27-3.5,3,0,3,2.62,7.48,4.45,10.58l8.19,14.07c9.62-14.79,11.69-20.51,11.69-24,0-2.23-2.86-3.42-5.41-3.58l-.08-1.19c4.22,0,6.6.56,9.55.56s5.32-.56,9.54-.56l.08,1.19c-5.49.48-11.37,10.66-24.33,30.54.07,24.57,2.94,24.09,8,24.57v1.22c-4.22,0-8.19-.56-11.14-.56s-6.91.56-11.13.56V58.24c4.85-.16,7.8.08,8-24.1Z"/></svg>